<svg xmlns="http://www.w3.org/2000/svg" viewBox="0 0 206.31 206.58"><defs><style>.cls-1{fill:#fff;}</style></defs><g id="Layer_2" data-name="Layer 2"><g id="Layer_1-2" data-name="Layer 1"><path class="cls-1" d="M16.66,123.06l-14.5,2.37-.33-2L14.08,118,.72,116.67l-.33-2,14.51-2.38.27,1.66L4.64,115.66l2.35.19,8.64.91.3,1.82L8,122.2c-1.22.49-1.93.8-2.17.93l10.53-1.73Z"/><path class="cls-1" d="M14.93,94.84l-4.41,1.28-.27,5.62,4.27,1.7-.08,1.76L0,99.37l.09-1.85L15,93.08ZM3.21,99l5.6,2.18L9,96.56,3.25,98.2,2,98.53Z"/><path class="cls-1" d="M16.3,85.53,2.08,81.79l.85-3.23A5.79,5.79,0,0,1,6.1,74.49a8.07,8.07,0,0,1,5.6-.29,8.06,8.06,0,0,1,4.7,3,5.85,5.85,0,0,1,.75,5.1ZM15.62,82c.8-3.07-.77-5.11-4.4-6.07s-6,0-6.82,3.12L4,80.48l11.21,3Z"/><path class="cls-1" d="M22.11,67.4,9,60.77l4-8,1.38.7L11.17,59.9l4.26,2.15,2.95-5.85,1.39.7-2.95,5.84,4.7,2.38,3.25-6.43,1.38.7Z"/><path class="cls-1" d="M41.27,20.64l.9,1.11-2.54,2.07L47.1,33l2.64-2.15.9,1.11L44,37.38l-.9-1.11,2.64-2.15-7.47-9.19L35.72,27l-.9-1.11Z"/><path class="cls-1" d="M58.58,26.72l-6.7-13.09,1.61-.82,9.74,6.86c.59.41,1,.69,1.12.82L59,10l1.5-.77,6.69,13.09-1.61.83-9.74-6.87c-.57-.39-.95-.67-1.12-.81L60.07,26Z"/><path class="cls-1" d="M104,0l-1.53,14.79-2,.11L97.93,3,96.67,15.08l-2.06.11L91.61.62,93.32.54l1.94,10.09.31,1.52.15-1.56L96.89.36l1.8-.09,2.19,10.06c.11.46.22,1,.31,1.54l.16-1.54L102.26.09Z"/><path class="cls-1" d="M123.52,2.13l-.23,1.41L120.06,3l-1.88,11.7,3.36.54-.22,1.41-8.46-1.35.22-1.41,3.36.53,1.87-11.69-3.23-.52L115.3.82Z"/><path class="cls-1" d="M130.52,19.1l5.29-13.72,1.68.65,1.38,11.83c.09.71.13,1.18.14,1.39l4.24-11,1.57.61-5.29,13.71-1.68-.65-1.38-11.83a11.32,11.32,0,0,1-.14-1.38l-4.24,11Z"/><path class="cls-1" d="M158.29,29.06c-2.28,1.84-4.48,2.09-6.58.71a5.13,5.13,0,0,1-2.54-4.17,9.3,9.3,0,0,1,1.77-5.47,8.78,8.78,0,0,1,4.37-3.69,5.26,5.26,0,0,1,4.86.6,4.85,4.85,0,0,1,2.05,5.86l-1.65-.23c.55-2,.18-3.39-1.31-4.37a3.44,3.44,0,0,0-3.49-.25,7.92,7.92,0,0,0-3.32,3.07q-3.33,5.09.14,7.37c1.62,1.06,3.19.61,4.87-.73Z"/><path class="cls-1" d="M162.48,37.59l10.45-10.33,1.24,1.26L169.6,33l4.4,4.45L178.57,33l1.23,1.25L169.35,44.55l-1.24-1.25,4.78-4.72-4.4-4.45-4.77,4.72Z"/><path class="cls-1" d="M175.11,51.81l12.36-8,4.82,7.49-1.31.84-3.86-6-4,2.58,3.54,5.51-1.3.84-3.55-5.5-4.43,2.85,3.9,6.06-1.31.84Z"/><path class="cls-1" d="M193.9,70.06c.57,3.13-.16,4.88-2.38,5.72a3.93,3.93,0,0,1-3.38-.28,5.28,5.28,0,0,1-2.43-3c-1.11-2.93-.05-5.3,2.33-6.91l1.27,1.16c-2.06,1.22-2.95,3.08-2.15,5.2.72,1.91,2.19,2.72,3.68,2.16s2-1.82,1.45-4.43c-.58-3,.19-5.09,2.38-5.91a3.34,3.34,0,0,1,3,.27,5.24,5.24,0,0,1,2.22,2.8,5,5,0,0,1-1.52,6.05l-1.3-1a3.6,3.6,0,0,0,1.39-4.52c-.61-1.63-1.87-2.52-3.28-2S193.42,67.46,193.9,70.06Z"/><path class="cls-1" d="M202.8,83.16l1.53-.23,1.51,10-1.54.23-.62-4.15-13,2-.26-1.75,13-2Z"/><path class="cls-1" d="M191.63,104.21l14.68.89-.54,8.89-1.56-.09.44-7.13-4.76-.29-.4,6.54-1.55-.1.4-6.54-5.26-.32-.44,7.19-1.55-.09Z"/><path class="cls-1" d="M187.42,130.18l7.12-1.76.75-2.73L189.14,124l.47-1.7,14.17,3.92-1.43,5.17a4.82,4.82,0,0,1-2,3,3.83,3.83,0,0,1-3.21.42,4.1,4.1,0,0,1-3-4.48l-7.23,1.81Zm14.39-2.69-5-1.39-.87,3.16c-.57,2.06,0,3.33,1.65,3.79s2.8-.34,3.37-2.4Z"/><path class="cls-1" d="M154.83,190.93l.73,1.37-9,4.73-.73-1.37,3.72-2-6.11-11.64,1.56-.82,6.11,11.64Z"/><path class="cls-1" d="M131.66,187.18l4,14.16-1.7.48-1.73-6.19-6,1.68,1.73,6.19-1.7.48-4-14.16,1.7-.48,1.8,6.48,6-1.69-1.8-6.47Z"/><path class="cls-1" d="M104.49,206.58l-.61-9.78a5.19,5.19,0,0,1,1.14-3.9,5.12,5.12,0,0,1,3.61-1.6,5.06,5.06,0,0,1,3.75,1.13,5.26,5.26,0,0,1,1.6,3.73l.62,9.79-1.76.11-.62-9.85c-.13-2.12-1.44-3.49-3.52-3.36s-3.2,1.66-3.06,3.77l.62,9.85Z"/><path class="cls-1" d="M93.16,197.22,93,198.51l-7.89-1.17.19-1.28Z"/><path class="cls-1" d="M64.36,191.13a9.46,9.46,0,0,1,3.33-4.76,5.12,5.12,0,0,1,7.6,2.83,11.73,11.73,0,0,1-4,10.57,5.08,5.08,0,0,1-7.6-2.84A9.52,9.52,0,0,1,64.36,191.13Zm9.41-.5-8.15,6.6a3.09,3.09,0,0,0,1.76,1.56c2.26.84,4.28-.78,5.63-4.4A10.37,10.37,0,0,0,73.77,190.63ZM66,191.77a10.32,10.32,0,0,0-.76,3.76l8.15-6.61a3.07,3.07,0,0,0-1.76-1.55C69.38,186.53,67.37,188.13,66,191.77Z"/><path class="cls-1" d="M53.43,185.93a3.7,3.7,0,0,1-.12,3.86,3.4,3.4,0,0,1-2.57,1.6,5.1,5.1,0,0,1-3.34-.87,5,5,0,0,1-2.16-2.65,3.36,3.36,0,0,1,.36-3,3.72,3.72,0,0,1,3.45-1.73,4.12,4.12,0,0,1,0-4.51A4,4,0,0,1,52,176.73,6,6,0,0,1,58,180.62a4,4,0,0,1-.5,3.42A4.11,4.11,0,0,1,53.43,185.93Zm-1.12.85a3.15,3.15,0,0,0-1.38-1.73,3.25,3.25,0,0,0-2.17-.54A2.3,2.3,0,0,0,47,185.59a2.27,2.27,0,0,0-.27,2.1,3.31,3.31,0,0,0,1.38,1.7,3.37,3.37,0,0,0,2.14.55,2.47,2.47,0,0,0,2-3.16ZM50.14,182a3.63,3.63,0,0,0,3.91,2.51,2.75,2.75,0,0,0,2-1.3,2.85,2.85,0,0,0,.39-2.31,3.43,3.43,0,0,0-1.55-2,3.06,3.06,0,0,0-4.43.73A2.67,2.67,0,0,0,50.14,182Z"/></g></g></svg>