<?xml version="1.0" encoding="UTF-8"?>
<svg width="109px" height="26px" viewBox="0 0 109 26" version="1.1" xmlns="http://www.w3.org/2000/svg" xmlns:xlink="http://www.w3.org/1999/xlink">
    <!-- Generator: Sketch 56 (81588) - https://sketch.com -->
    <title>Group 17</title>
    <desc>Created with Sketch.</desc>
    <g id="Design-v2.0" stroke="none" stroke-width="1" fill="none" fill-rule="evenodd">
        <g id="Thursday_www_Home_v2.0" transform="translate(-71.000000, -95.000000)" fill="#000000">
            <g id="Group-17" transform="translate(71.000000, 95.000000)">
                <polygon id="Fill-1" points="0 0 0 2.03481925 5.99483443 2.03481925 5.99483443 19.2500004 8.30516588 19.2500004 8.30516588 2.03481925 14.3000003 2.03481925 14.3000003 0"></polygon>
                <g id="Group-16" transform="translate(17.050000, 0.000000)">
                    <path d="M12.1291454,19.4587274 L9.97464783,19.4587274 L9.97464783,10.572554 C9.97464783,8.44057715 8.62155121,7.27813248 6.63292288,7.27813248 C5.52817944,7.27813248 4.5613599,7.69332356 3.76086037,8.55126465 C2.95945938,9.3820986 2.54523693,10.4889736 2.54523693,11.8456861 L2.54523693,19.4587274 L0.391190057,19.4587274 L0.391190057,0.0802823232 L2.54523693,0.0802823232 L2.54523693,8.13607357 C3.45661647,6.44729853 5.3073209,5.34042351 7.2130146,5.34042351 C8.59405658,5.34042351 9.75378928,5.7551628 10.6931142,6.58599675 C11.659483,7.38881998 12.1291454,8.60683429 12.1291454,10.1849218 L12.1291454,19.4587274 Z" id="Fill-2"></path>
                    <path d="M14.6842985,5.7275587 L16.8383453,5.7275587 L16.8383453,14.6693017 C16.8383453,16.7737196 18.1643981,17.9081536 20.0700918,17.9081536 C21.2023298,17.9081536 22.141204,17.4929625 22.9146596,16.6630321 C23.7156099,15.8321982 24.1023377,14.7524303 24.1023377,13.4237285 L24.1023377,5.7275587 L26.2568353,5.7275587 L26.2568353,19.4586822 L24.1023377,19.4586822 L24.1023377,17.0502125 C23.1355182,18.9047929 21.6165523,19.8463144 19.54544,19.8463144 C18.1918927,19.8463144 17.0317092,19.4311233 16.0928351,18.6007411 C15.1539609,17.7699072 14.6842985,16.4963232 14.6842985,14.780441 L14.6842985,5.7275587 Z" id="Fill-4"></path>
                    <path d="M35.4606868,7.49941713 C35.1014536,7.38872962 34.7426712,7.33315998 34.383438,7.33315998 C33.4170692,7.33315998 32.6156682,7.74880285 31.925598,8.60674394 C31.235077,9.46513681 30.9037892,10.5724636 30.9037892,11.9567351 L30.9037892,19.458637 L28.7492915,19.458637 L28.7492915,5.72751352 L30.9037892,5.72751352 L30.9037892,8.21911179 C31.7876741,6.30896174 33.113276,5.34033315 34.8805951,5.34033315 C35.184839,5.34033315 35.4886322,5.39545101 35.81992,5.47857958 L35.4606868,7.49941713 Z" id="Fill-6"></path>
                    <path d="M43.2507282,11.402891 C46.3166053,11.9838874 47.8626151,13.313041 47.8626151,15.444566 C47.8626151,16.6901393 47.3934034,17.7147893 46.4820238,18.5727304 C45.5701936,19.4311233 44.3000316,19.8463144 42.6706364,19.8463144 C39.7981232,19.8463144 37.7265602,18.2126572 36.8431261,15.8597571 L38.6383905,14.7524303 C39.4393408,16.8844072 40.764492,17.9637232 42.6706364,17.9637232 C44.5488355,17.9637232 45.7085682,17.0502125 45.7085682,15.5276946 C45.7085682,14.198541 44.6313194,13.4792981 42.200974,13.0641071 C39.4668354,12.5377767 37.616131,11.2641927 37.616131,9.04999091 C37.616131,7.91465339 38.0857934,7.02870158 38.9971729,6.36457657 C39.9085525,5.67244084 41.0412413,5.34037833 42.3393486,5.34037833 C44.9905526,5.34037833 46.7578716,6.44725335 47.6697019,8.66235876 L46.0123614,9.63098735 C45.349335,7.99778196 44.1341623,7.1673998 42.3668433,7.1673998 C40.7924374,7.1673998 39.6047593,7.83152481 39.6047593,8.96641055 C39.6047593,10.2955642 40.9028666,10.960141 43.2507282,11.402891" id="Fill-8"></path>
                    <path d="M59.9502481,16.4135561 C60.8611769,15.4444757 61.3033447,14.1708917 61.3033447,12.593256 C61.3033447,11.0151685 60.8611769,9.76959521 59.9502481,8.80051483 C59.0663632,7.83143446 57.9616198,7.3331148 56.6635124,7.3331148 C55.3379105,7.3331148 54.2327163,7.83143446 53.3217875,8.80051483 C52.4379026,9.76959521 51.9961855,11.0151685 51.9961855,12.593256 C51.9961855,14.1708917 52.4379026,15.4444757 53.3217875,16.4135561 C54.2327163,17.3826364 55.3379105,17.8533972 56.6635124,17.8533972 C57.9616198,17.8533972 59.0663632,17.3826364 59.9502481,16.4135561 L59.9502481,16.4135561 Z M63.2919731,0.0801467875 L63.2919731,19.4585919 L61.1379262,19.4585919 L61.1379262,16.9950043 C60.0606774,18.9051543 58.4862715,19.8466758 56.4147085,19.8466758 C54.5090148,19.8466758 52.9071143,19.1540883 51.664447,17.7973757 C50.4213289,16.4415668 49.7862479,14.6972221 49.7862479,12.593256 C49.7862479,10.5168488 50.4213289,8.80051483 51.7194362,7.41624338 C53.0175436,6.03197192 54.5365095,5.34028797 56.2767846,5.34028797 C58.5692061,5.34028797 60.3365252,6.41960407 61.1379262,8.21906661 L61.1379262,0.0801467875 L63.2919731,0.0801467875 Z" id="Fill-10"></path>
                    <path d="M73.6720541,16.3579864 C74.4730043,15.3062293 74.8597322,14.0330971 74.8597322,12.5652453 L74.8597322,12.150506 L70.6895623,12.8697489 C68.8113632,13.2022631 67.7891037,14.1437846 67.7891037,15.555615 C67.7891037,16.9950043 68.8113632,17.908515 70.4407584,17.908515 C71.8218004,17.908515 72.8985985,17.3826364 73.6720541,16.3579864 L73.6720541,16.3579864 Z M75.6886278,19.4585919 C75.1360307,18.7944668 74.8597322,17.8805043 74.8597322,16.7456186 C73.9758473,18.739349 72.2635175,19.8466758 70.1919545,19.8466758 C67.4303213,19.8466758 65.5800676,18.1023311 65.5800676,15.6663025 C65.5800676,13.2022631 67.4578159,11.6241756 70.3023838,11.1814256 L74.8597322,10.4337202 L74.8597322,9.82471307 C74.8597322,8.05326125 73.7824834,7.16730944 71.6284365,7.16730944 C69.6123135,7.16730944 68.3966901,8.08082018 68.3966901,9.29883449 C68.3966901,9.4375327 68.4241847,9.57577914 68.4521301,9.71402557 L66.573931,10.3510434 C66.4360071,9.99097022 66.3530725,9.63089699 66.3530725,9.24326484 C66.3530725,8.16394875 66.8502295,7.2224273 67.8170491,6.47517371 C68.7834179,5.72746834 70.0540306,5.34028797 71.6284365,5.34028797 C75.1635253,5.34028797 77.013779,6.97349337 77.013779,9.82471307 L77.013779,16.0259239 C77.013779,17.6040115 77.2075937,18.3792758 77.8426747,19.4585919 L75.6886278,19.4585919 Z" id="Fill-12"></path>
                    <path d="M80.412792,23.0853469 C80.7715744,23.279163 81.1583022,23.3618398 81.5170847,23.3618398 C82.4009696,23.3618398 82.7602028,23.0022184 83.1744252,22.005579 L84.1966848,19.4037451 L78.6725168,5.72773941 L81.047873,5.72773941 L85.3839121,16.4965039 L89.6645112,5.72773941 L91.9848781,5.72773941 L85.1076136,22.6977148 C84.3341579,24.6078648 83.2848545,25.3000005 81.5170847,25.3000005 C80.992433,25.3000005 80.4957266,25.216872 80.0815042,25.0230559 L80.412792,23.0853469 Z" id="Fill-14"></path>
                </g>
            </g>
        </g>
    </g>
</svg>